<svg width="22" height="22" viewBox="0 0 22 22" fill="none" xmlns="http://www.w3.org/2000/svg">
<path d="M21.0403 3.48381L18.1116 0.55818C17.7541 0.200725 17.2756 0 16.7696 0C16.2636 0 15.7851 0.197975 15.4276 0.55818L12.2733 3.70654C11.9158 4.06399 11.7151 4.54518 11.7151 5.05112C11.7151 5.55981 11.9131 6.0355 12.2733 6.3957L14.7373 8.86214C14.176 10.1698 13.3695 11.358 12.3613 12.3625C11.352 13.3771 10.1723 14.1772 8.86329 14.7437L6.39928 12.2772C6.04178 11.9198 5.56327 11.719 5.05727 11.719C4.80769 11.7181 4.56043 11.767 4.32999 11.8629C4.09955 11.9587 3.89056 12.0996 3.71527 12.2772L0.558253 15.4256C0.200751 15.783 0 16.2642 0 16.7702C0 17.2788 0.198001 17.7545 0.558253 18.1147L3.48427 21.0404C4.09477 21.6508 4.93627 22 5.79978 22C5.97853 22 6.15178 21.9863 6.32778 21.956C9.96879 21.3566 13.5823 19.4181 16.5001 16.5034C19.4151 13.5833 21.3511 9.97025 21.9561 6.32696C22.1293 5.29309 21.7828 4.22897 21.0403 3.48381ZM20.0063 5.99975C19.4701 9.2416 17.7266 12.4752 15.1003 15.1011C12.4741 17.727 9.24279 19.4703 6.00053 20.0065C5.59352 20.0752 5.17552 19.9378 4.87852 19.6435L2.00476 16.7702L5.05177 13.7208L8.34629 17.0204L8.37104 17.0451L8.96504 16.8251C10.7661 16.163 12.4016 15.1173 13.7583 13.7603C15.1149 12.4034 16.1603 10.7677 16.8218 8.96663L17.0418 8.3727L13.7198 5.05387L16.7668 2.0045L19.6406 4.87789C19.9376 5.17485 20.0751 5.5928 20.0063 5.99975Z" fill="#0E0E0E"/>
</svg>
