<svg width="104" height="36" viewBox="0 0 104 36" fill="none" xmlns="http://www.w3.org/2000/svg">
<path d="M103.471 27.7914C103.933 27.3296 103.933 26.581 103.471 26.1192L95.9459 18.5942C95.4841 18.1324 94.7354 18.1324 94.2737 18.5942C93.8119 19.056 93.8119 19.8047 94.2737 20.2664L100.963 26.9553L94.2737 33.6442C93.8119 34.1059 93.8119 34.8546 94.2737 35.3164C94.7354 35.7782 95.4841 35.7782 95.9459 35.3164L103.471 27.7914ZM50.1918 13.1941C49.8094 12.6647 49.0703 12.5455 48.5409 12.9279C48.0115 13.3102 47.8923 14.0493 48.2746 14.5787L50.1918 13.1941ZM48.2746 14.5787C48.657 15.1082 49.3961 15.2274 49.9255 14.845C50.4549 14.4627 50.5741 13.7235 50.1918 13.1941L48.2746 14.5787ZM3.95363 6.63324C4.57829 6.44279 4.93029 5.78202 4.73984 5.15737C4.5494 4.53271 3.88863 4.18071 3.26398 4.37116L3.95363 6.63324ZM10.8704 2.05213C10.2457 2.24257 9.89373 2.90334 10.0842 3.528C10.2746 4.15265 10.9354 4.50465 11.56 4.31421L10.8704 2.05213ZM19.0615 2.35119C19.707 2.25171 20.1495 1.64784 20.05 1.00242C19.9506 0.357004 19.3467 -0.0855633 18.7013 0.0139217L19.0615 2.35119ZM29.5747 0.171109C28.9324 0.0531369 28.3161 0.478187 28.1981 1.12048C28.0801 1.76278 28.5052 2.3791 29.1475 2.49707L29.5747 0.171109ZM37.3637 5.26271C37.9466 5.55714 38.6578 5.3233 38.9523 4.7404C39.2467 4.1575 39.0129 3.44628 38.43 3.15185L37.3637 5.26271ZM47.1852 9.60177C46.7313 9.13225 45.9828 9.11958 45.5132 9.57347C45.0437 10.0274 45.031 10.7759 45.4849 11.2454L47.1852 9.60177ZM50.5186 17.3538C50.9563 17.8384 51.7041 17.8765 52.1887 17.4388C52.6733 17.0011 52.7114 16.2533 52.2737 15.7687L50.5186 17.3538ZM58.1165 20.7802C57.5709 20.4214 56.8377 20.5728 56.4788 21.1184C56.12 21.664 56.2714 22.3973 56.8171 22.7561L58.1165 20.7802ZM63.162 26.0003C63.7724 26.2326 64.4554 25.926 64.6877 25.3157C64.9199 24.7053 64.6134 24.0223 64.003 23.7901L63.162 26.0003ZM71.4866 25.5925C70.8375 25.5214 70.2536 25.99 70.1825 26.6392C70.1114 27.2884 70.5801 27.8722 71.2292 27.9433L71.4866 25.5925ZM81.2221 28.1377C81.8752 28.1377 82.4046 27.6083 82.4046 26.9553C82.4046 26.3023 81.8752 25.7729 81.2221 25.7729L81.2221 28.1377ZM96.2053 25.7729C95.5523 25.7729 95.0229 26.3023 95.0229 26.9553C95.0229 27.6083 95.5523 28.1377 96.2053 28.1377L96.2053 25.7729ZM0.689647 7.62835L3.95363 6.63324L3.26398 4.37116L-1.07502e-05 5.36628L0.689647 7.62835ZM11.56 4.31421L14.824 3.31909L14.1344 1.05701L10.8704 2.05213L11.56 4.31421ZM14.824 3.31909C16.2269 2.89137 17.6427 2.56989 19.0615 2.35119L18.7013 0.0139217C17.1716 0.249703 15.6457 0.596233 14.1344 1.05701L14.824 3.31909ZM29.1475 2.49707C32.0035 3.02165 34.7718 3.95346 37.3637 5.26271L38.43 3.15185C35.6364 1.74075 32.6529 0.736493 29.5747 0.171109L29.1475 2.49707ZM45.4849 11.2454C46.4827 12.2776 47.4159 13.3897 48.2746 14.5787L50.1918 13.1941C49.2667 11.9132 48.2609 10.7145 47.1852 9.60177L45.4849 11.2454ZM48.2746 14.5787C48.9758 15.5496 49.7253 16.4754 50.5186 17.3538L52.2737 15.7687C51.5378 14.9539 50.8424 14.095 50.1918 13.1941L48.2746 14.5787ZM56.8171 22.7561C58.8075 24.0651 60.9354 25.1531 63.162 26.0003L64.003 23.7901C61.9373 23.0041 59.9631 21.9946 58.1165 20.7802L56.8171 22.7561ZM71.2292 27.9433C72.4058 28.0722 73.5951 28.1377 74.7927 28.1377L74.7927 25.7729C73.6815 25.7729 72.5781 25.712 71.4866 25.5925L71.2292 27.9433ZM74.7927 28.1377L81.2221 28.1377L81.2221 25.7729L74.7927 25.7729L74.7927 28.1377ZM96.2053 28.1377L102.635 28.1377L102.635 25.7729L96.2053 25.7729L96.2053 28.1377Z" fill="#A3A3A3"/>
</svg>
