<svg width="317" height="1109" viewBox="0 0 317 1109" fill="none" xmlns="http://www.w3.org/2000/svg">
<path d="M0.561523 3.72668C31.8548 -3.31121 61.76 2.7326 87.4619 28.1759C112.914 53.3713 118.16 82.901 113.185 114.2C108.232 145.364 93.1214 178.466 77.7383 211.096L77.7393 211.097C76.8301 213.026 75.9191 214.953 75.0098 216.878C60.4714 247.657 46.1898 277.905 40.0059 306.038C33.4564 335.834 36.0642 362.903 56.8896 385.564C78.1758 408.725 96.9475 422.317 114.034 430.605C131.115 438.89 146.62 441.925 161.486 443.845L164.337 444.202C167.18 444.547 170.004 444.86 172.815 445.172C198.372 448.007 222.796 450.708 249.888 475.913C283.597 507.276 296.411 546.252 298.399 588.364C300.384 630.401 291.589 675.698 281.997 719.859C280.863 725.082 279.716 730.29 278.575 735.476C270.048 774.24 261.808 811.706 260.519 845.212C259.058 883.16 266.533 915.598 292.251 938.913C305.746 951.148 312.797 965.092 314.574 979.641L314.653 980.322C316.188 994.17 312.956 1008.39 306.238 1022.02L305.566 1023.35C291.012 1051.84 261.175 1077.89 226.636 1093.1C192.089 1108.31 152.494 1112.83 118.438 1097.66C84.2948 1082.46 56.2037 1047.71 44.2998 985.457C37.4688 949.733 29.0911 922.575 21.3887 897.608C19.2372 890.633 17.1371 883.826 15.1396 877.055C5.98364 846.016 -1.00003 815.764 -1 773.201V4.07825L-0.219727 3.90247L0.561523 3.72668Z" stroke="black" stroke-width="2"/>
</svg>
