<svg width="317" height="1108" viewBox="0 0 317 1108" fill="none" xmlns="http://www.w3.org/2000/svg">
<path d="M316.969 771.287L316.929 771.426L316.888 771.565C302.562 820.2 291.265 879.598 276.134 959.163C274.524 967.627 272.871 976.319 271.167 985.25C259.289 1047.48 231.256 1082.24 197.183 1097.43C163.198 1112.59 123.684 1108.08 89.2091 1092.87C54.7416 1077.67 24.9671 1051.61 10.4435 1023.14C3.17209 1008.89 -0.315792 993.948 1.45422 979.436C3.22818 964.891 10.264 950.95 23.7316 938.717C49.3951 915.406 56.854 882.975 55.3966 845.034C54.1098 811.535 45.8875 774.077 37.3771 735.321C36.2386 730.137 35.095 724.929 33.963 719.707C24.3912 675.556 15.6139 630.269 17.5948 588.241C19.5793 546.138 32.367 507.17 66.006 475.814C93.0408 450.614 117.414 447.913 142.917 445.078C146.658 444.662 150.421 444.245 154.223 443.752L157.013 443.378C170.999 441.433 185.595 438.28 201.574 430.515C218.625 422.229 237.357 408.641 258.599 385.484C279.381 362.828 281.983 335.764 275.447 305.974C269.276 277.847 255.025 247.606 240.518 216.833C239.61 214.908 238.701 212.981 237.794 211.053L234.921 204.931C220.597 174.299 207.055 143.386 202.422 114.177C197.458 82.8837 202.693 53.3613 228.092 28.171L229.305 26.9855C254.848 2.38336 284.464 -3.27342 315.42 3.86536L316.193 4.04309L316.969 4.2218V771.287Z" stroke="black" stroke-width="2"/>
</svg>
