<svg width="152" height="541" viewBox="0 0 152 541" fill="none" xmlns="http://www.w3.org/2000/svg">
<path d="M53.2646 5.63135C70.1309 -1.87761 89.6542 0.383676 106.586 7.84033C123.51 15.2935 138.188 28.0817 145.378 42.1479V42.1489C148.869 48.9802 150.632 56.1907 149.929 63.2642L149.854 63.9487C148.958 71.2729 145.406 78.2579 138.693 84.3442C126.54 95.3623 122.934 110.732 123.637 128.998C124.259 145.147 128.232 163.224 132.373 182.049C132.927 184.564 133.483 187.092 134.033 189.628C138.685 211.043 142.983 233.14 142.013 253.685C141.039 274.305 134.752 293.497 118.151 308.942C104.749 321.411 92.5884 322.749 80.166 324.125C78.3495 324.327 76.5313 324.529 74.6982 324.765C67.5396 325.689 60.1412 327.143 51.9961 331.093C43.8452 335.046 34.8395 341.554 24.583 352.714C14.7875 363.373 13.506 376.114 16.6406 390.375C19.6125 403.895 26.4872 418.461 33.5557 433.426C33.9937 434.354 34.4327 435.283 34.8711 436.213C42.322 452.018 49.7216 468.21 52.1514 483.497C54.6028 498.921 52.0196 513.609 39.3809 526.121C27.8825 537.504 14.623 541.079 0.714844 539.076V539.075L-0.141602 538.953L-1 538.83V147.694L-0.941406 147.458C4.04731 127.235 8.60941 103.288 14.29 73.4731C15.0728 69.3647 15.8769 65.145 16.7061 60.8091C22.5248 30.379 36.3101 13.1797 53.2646 5.63135Z" stroke="black" stroke-width="2"/>
</svg>
