<svg width="153" height="541" viewBox="0 0 153 541" fill="none" xmlns="http://www.w3.org/2000/svg">
<path d="M152.674 538.72L151.828 538.852L150.982 538.984C136.854 541.181 123.372 537.675 111.701 526.122C99.0619 513.61 96.4783 498.921 98.9298 483.497C101.359 468.21 108.759 452.019 116.21 436.214L117.526 433.427C124.595 418.462 131.469 403.895 134.441 390.374L134.722 389.042C137.487 375.32 135.988 363.04 126.498 352.714C116.242 341.554 107.236 335.046 99.0851 331.093C91.4491 327.389 84.4698 325.881 77.7286 324.946L76.3829 324.765C74.5505 324.528 72.7331 324.327 70.9161 324.125H70.9152C58.4927 322.749 46.3323 321.411 32.9298 308.942C16.3296 293.497 10.0422 274.305 9.06848 253.685C8.09836 233.14 12.3968 211.043 17.048 189.629C17.5988 187.092 18.1549 184.564 18.7081 182.049V182.048C22.8494 163.224 26.8229 145.147 27.4445 128.997C28.1365 111.017 24.6538 95.8431 12.9523 84.8637L12.3888 84.3442C5.67538 78.2578 2.12363 71.2729 1.22864 63.9487C0.337566 56.6566 2.09882 49.1998 5.70325 42.1479C12.8931 28.0815 27.5713 15.2936 44.4952 7.84027C61.4271 0.383604 80.9503 -1.8776 97.8165 5.63129H97.8175C114.771 13.1798 128.557 30.3791 134.375 60.809C135.204 65.1449 136.007 69.3647 136.79 73.4731C142.51 103.493 147.097 127.563 152.125 147.869L152.613 149.823L152.614 149.826L152.645 149.947L152.674 150.066V538.72Z" stroke="black" stroke-width="2"/>
</svg>
