<svg width="215" height="495" viewBox="0 0 215 495" fill="none" xmlns="http://www.w3.org/2000/svg">
<path d="M81.123 22.5618C101.852 5.36665 122.091 -0.687112 141.438 1.39282C160.715 3.46537 178.809 13.5809 195.38 28.1409C207.538 38.8246 212.89 50.6907 213.469 63.3811C214.044 75.9675 209.916 89.1649 203.543 102.591C197.166 116.027 188.439 129.898 179.627 143.828L178.991 144.832C170.36 158.475 161.693 172.177 154.939 185.77C143.092 209.618 127.072 224.952 111.703 239.668C110.336 240.977 108.975 242.28 107.622 243.585L107.621 243.586C91.0397 259.571 75.6648 275.706 66.8945 302.365C57.4552 331.059 67.9138 357.996 78.2373 384.488C79.082 386.656 79.9258 388.821 80.7559 390.981C91.6235 419.256 100.399 447.239 78.7227 474.475C66.9226 489.3 53.8246 494.641 40.1016 492.636C27.0219 490.725 13.7669 482.189 0.856445 469.944L-0.391602 468.747L-0.696289 468.452L-1 468.157V153.395L-0.370117 153.144L0.260742 152.893H0.261719C16.4398 146.466 26.7114 137.55 33.7607 127.272C40.8425 116.946 44.7443 105.142 48.0146 92.7913C48.8727 89.5506 49.6857 86.2761 50.5029 82.9827C55.8702 61.3527 61.4105 38.9139 81.123 22.5618Z" stroke="black" stroke-width="2"/>
</svg>
