<svg width="215" height="495" viewBox="0 0 215 495" fill="none" xmlns="http://www.w3.org/2000/svg">
<path d="M216.121 467.571L215.819 467.865L215.519 468.157C202.122 481.262 188.332 490.495 174.729 492.59C160.898 494.719 147.69 489.415 135.799 474.475C114.122 447.239 122.899 419.256 133.767 390.981C134.596 388.821 135.44 386.656 136.285 384.489C146.609 357.997 157.067 331.059 147.628 302.365C138.858 275.705 123.482 259.571 106.901 243.586V243.585L102.819 239.668C87.4517 224.952 71.4311 209.618 59.583 185.77C52.8303 172.177 44.1622 158.475 35.5312 144.832L34.8955 143.828C26.0839 129.899 17.3554 116.027 10.9785 102.591C4.60631 89.165 0.4789 75.9674 1.05371 63.3811C1.63328 50.6907 6.98358 38.8246 19.1426 28.1409C35.7132 13.5809 53.8069 3.46538 73.084 1.39282C92.4312 -0.687226 112.671 5.36643 133.399 22.5618C153.113 38.9142 158.652 61.3551 164.021 82.9866C164.856 86.354 165.687 89.7021 166.566 93.0139C169.854 105.396 173.793 117.221 180.953 127.551C188.081 137.834 198.476 146.737 214.848 153.124L215.483 153.371L216.121 153.619V467.571Z" stroke="black" stroke-width="2"/>
</svg>
